<svg width="186" height="21" viewBox="0 0 186 21" fill="none" xmlns="http://www.w3.org/2000/svg">
<path d="M31.6699 10.4372L30.6586 8.7013L27.2274 2.8135L26.4896 1.54799C26.3632 1.32813 26.1259 1.19263 25.8705 1.19263H15.5099C15.2545 1.19263 15.0171 1.32813 14.8907 1.54799L14.0652 2.96434L10.4405 9.18705C10.3709 9.30721 10.2161 9.36857 10.0819 9.33278C9.94263 9.29698 9.84718 9.17171 9.84718 9.02854V6.07058C9.84718 3.38106 7.63885 1.19263 4.92488 1.19263H0.71461C0.319897 1.19263 0 1.50964 0 1.9008V6.07058C0 8.01614 1.16866 9.75461 2.97711 10.5011C3.09579 10.5497 3.17318 10.6648 3.17318 10.79V10.7926C3.17318 10.9204 3.09579 11.0329 2.97711 11.084C1.17898 11.8254 0.0103193 13.5537 0 15.4865C0 15.489 0 15.5069 0 15.5095V18.5569V19.6869C0 20.0781 0.319897 20.3951 0.71461 20.3951H4.9223C7.63627 20.3951 9.8446 18.2067 9.8446 15.5171V12.5592C9.8446 12.416 9.94263 12.2907 10.0794 12.2549C10.1052 12.2473 10.1335 12.2447 10.1619 12.2447C10.2754 12.2447 10.3812 12.3061 10.438 12.4032L14.2974 19.0248L14.8882 20.0397C15.0146 20.2596 15.2519 20.3951 15.5073 20.3951H25.8679C26.1233 20.3951 26.3606 20.2596 26.487 20.0397L27.5835 18.1581L30.1607 13.7326L30.1968 13.6687L31.381 11.6363L31.6647 11.1479C31.7963 10.9281 31.7963 10.6571 31.6699 10.4372ZM20.7676 14.5201C18.7476 14.5201 17.1016 12.8481 17.1016 10.7926C17.1016 8.73709 18.745 7.06509 20.7676 7.06509C22.7876 7.06509 24.4335 8.73709 24.4335 10.7926C24.4335 12.8481 22.7876 14.5201 20.7676 14.5201Z" fill="white"/>
<path d="M78.2514 0.705322C72.1682 0.705322 67.9269 5.10264 67.9269 10.7143C67.9269 16.3286 72.1682 20.7233 78.2514 20.7233C84.3346 20.7233 88.5758 16.326 88.5758 10.7143C88.5758 5.10264 84.3346 0.705322 78.2514 0.705322ZM78.4345 17.6657C75.9528 17.7296 74.4719 15.4133 74.3533 10.8626C74.2217 5.85172 75.5864 3.82946 78.0347 3.76555C80.581 3.69908 82.0205 5.68043 82.1521 10.6606C82.2733 15.242 80.9473 17.6018 78.4345 17.6657Z" fill="white"/>
<path d="M45.8203 1.03687H37.7842C37.3379 1.03687 37.0593 1.31298 37.0593 1.75526V2.80602C37.0593 3.27643 37.227 3.44261 37.6449 3.60878L38.1737 3.80309C38.7594 4.02295 38.9554 4.32718 38.9554 4.93565V16.494C38.9554 17.1024 38.7594 17.4067 38.1737 17.6265L37.6449 17.8208C37.227 17.987 37.0593 18.1532 37.0593 18.6236V19.6743C37.0593 20.1166 37.3379 20.3927 37.7842 20.3927H45.8203C46.2667 20.3927 46.5453 20.1166 46.5453 19.6743V18.6236C46.5453 18.1532 46.3776 17.987 45.9596 17.8208L45.4308 17.6265C44.8452 17.4067 44.6491 17.1024 44.6491 16.494V4.93565C44.6491 4.32718 44.8452 4.02295 45.4308 3.80309L45.9596 3.60878C46.3776 3.44261 46.5453 3.27643 46.5453 2.80602V1.75526C46.5453 1.31298 46.2667 1.03687 45.8203 1.03687Z" fill="white"/>
<path d="M67.2948 17.8488L66.9878 17.6826C66.2345 17.2685 65.6772 16.9642 64.9497 15.8291L62.3261 11.6542C62.1867 11.4318 62.2693 11.2682 62.5221 11.2119C64.7253 10.6316 65.9817 9.35841 65.9817 7.09072C65.9817 2.80845 62.6124 1.03418 55.4121 1.03418L49.0168 1.09042C48.5705 1.14667 48.346 1.39466 48.346 1.80882V2.85958C48.346 3.32999 48.5137 3.49617 48.8749 3.63422L49.5172 3.88221C50.0461 4.10463 50.2422 4.38074 50.2422 4.93297V16.4913C50.2422 17.0997 50.0461 17.404 49.4605 17.6238L48.9316 17.8181C48.5137 17.9843 48.346 18.1505 48.346 18.6209V19.6717C48.346 20.1139 48.6246 20.3901 49.0709 20.3901H57.1071C57.5818 20.3901 57.832 20.1139 57.832 19.6717V18.6209C57.832 18.1505 57.6643 17.9843 57.2464 17.8181L56.7149 17.6238C56.1293 17.404 55.9333 17.0997 55.9333 16.4913V12.2039C55.9333 11.9559 56.0158 11.8715 56.2119 11.8715C56.4363 11.8715 56.5756 12.0377 56.7691 12.3701L60.5924 19.2268C61.0671 20.0833 61.4283 20.3875 62.406 20.3875H67.2896C67.7643 20.3875 67.9604 20.1395 67.9604 19.779V18.7845C67.9655 18.3473 67.8262 18.153 67.2948 17.8488ZM56.9704 9.55271H56.3564C56.1268 9.55271 55.9616 9.38909 55.9616 9.16155V3.87965C55.9616 3.65212 56.1268 3.4885 56.3564 3.4885H57.0013C59.1709 3.4885 60.515 4.26825 60.515 6.43112C60.515 8.59143 59.4754 9.55271 56.9704 9.55271Z" fill="white"/>
<path d="M184.883 3.80309L185.412 3.60878C185.83 3.44261 185.998 3.27643 185.998 2.80602V1.75526C185.998 1.31298 185.747 1.03687 185.273 1.03687H177.237C176.79 1.03687 176.512 1.31298 176.512 1.75526V2.80602C176.512 3.27643 176.679 3.44261 177.097 3.60878L177.626 3.80309C178.212 4.02295 178.408 4.32718 178.408 4.93565V8.42027C178.408 8.61457 178.268 8.75263 178.072 8.75263H172.159C171.963 8.75263 171.824 8.61457 171.824 8.42027V4.93565C171.824 4.32718 172.02 4.02295 172.606 3.80309L173.137 3.60878C173.555 3.44261 173.723 3.27643 173.723 2.80602V1.75526C173.723 1.31298 173.473 1.03687 172.998 1.03687H164.962C164.515 1.03687 164.237 1.31298 164.237 1.75526V2.80602C164.237 3.27643 164.405 3.44261 164.822 3.60878L165.351 3.80309C165.937 4.02295 166.133 4.32718 166.133 4.93565V16.494C166.133 17.1024 165.937 17.4067 165.351 17.6265L164.822 17.8208C164.405 17.987 164.237 18.1532 164.237 18.6236V19.6743C164.237 20.1166 164.515 20.3927 164.962 20.3927H172.998C173.473 20.3927 173.723 20.1166 173.723 19.6743V18.6236C173.723 18.1532 173.555 17.987 173.137 17.8208L172.606 17.6265C172.02 17.4067 171.824 17.1024 171.824 16.494V11.9023C171.824 11.708 171.963 11.57 172.159 11.57H178.075C178.271 11.57 178.41 11.708 178.41 11.9023V16.494C178.41 17.1024 178.214 17.4067 177.629 17.6265L177.1 17.8208C176.682 17.987 176.514 18.1532 176.514 18.6236V19.6743C176.514 20.1166 176.793 20.3927 177.239 20.3927H185.275C185.75 20.3927 186 20.1166 186 19.6743V18.6236C186 18.1532 185.833 17.987 185.415 17.8208L184.886 17.6265C184.3 17.4067 184.104 17.1024 184.104 16.494V4.93565C184.101 4.32718 184.298 4.02295 184.883 3.80309Z" fill="white"/>
<path d="M156.985 8.11602L153.579 7.12151C151.905 6.62298 151.013 6.04264 151.013 5.07625C151.013 4.13543 151.905 3.53719 153.272 3.52696C155.192 3.51162 156.902 4.38342 159.356 7.01158C159.691 7.37206 160.052 7.51011 160.555 7.234L161.141 6.90165C161.644 6.62554 161.719 6.21393 161.476 5.79465L159.038 1.61975C158.757 1.12633 158.564 0.788865 157.978 0.788865H157.71C157.039 0.788865 156.956 1.0931 156.286 1.0931C155.421 1.0931 154.493 0.760742 152.909 0.760742C148.528 0.760742 145.683 2.86225 145.683 6.56674C145.683 9.66275 147.943 11.4063 150.734 12.319L154.361 13.5078C156.146 14.0882 157.096 14.7529 157.096 15.9698C157.096 17.2686 156.092 17.8489 154.446 17.8489C151.936 17.8489 149.759 16.4377 147.47 13.4516C147.107 12.9812 146.746 12.8994 146.271 13.1193L145.35 13.5615C144.932 13.7558 144.813 14.1726 145.071 14.6941L147.641 19.9198C147.873 20.3902 148.198 20.5845 148.59 20.5845H148.923C149.537 20.5845 149.955 20.1703 150.515 20.1703C151.547 20.1703 152.579 20.6688 154.895 20.6688C159.526 20.6688 162.82 18.5392 162.82 14.4487C162.818 10.6598 160.277 9.05684 156.985 8.11602Z" fill="white"/>
<path d="M142.858 1.03687H134.822C134.375 1.03687 134.097 1.31298 134.097 1.75526V2.80602C134.097 3.27643 134.264 3.44261 134.682 3.60878L135.211 3.80309C135.797 4.02295 135.993 4.32718 135.993 4.93565V16.494C135.993 17.1024 135.797 17.4067 135.211 17.6265L134.682 17.8208C134.264 17.987 134.097 18.1532 134.097 18.6236V19.6743C134.097 20.1166 134.375 20.3927 134.822 20.3927H142.858C143.304 20.3927 143.583 20.1166 143.583 19.6743V18.6236C143.583 18.1532 143.415 17.987 142.997 17.8208L142.468 17.6265C141.883 17.4067 141.687 17.1024 141.687 16.494V4.93565C141.687 4.32718 141.883 4.02295 142.468 3.80309L142.997 3.60878C143.415 3.44261 143.583 3.27643 143.583 2.80602V1.75526C143.583 1.31298 143.304 1.03687 142.858 1.03687Z" fill="white"/>
<path d="M130.737 1.12114C130.552 0.801565 130.374 0.594482 129.956 0.594482H129.401C129.094 0.594482 128.924 0.666068 128.692 0.845028C128.439 1.03677 128.22 1.03677 127.673 1.03677H117.281C116.835 1.03677 116.556 1.31288 116.556 1.75517V2.80593C116.556 3.27634 116.724 3.44251 117.142 3.60869L117.671 3.80299C118.256 4.02286 118.452 4.32709 118.452 4.93556V16.4939C118.452 17.1023 118.256 17.4066 117.671 17.6264L117.142 17.8207C116.724 17.9869 116.556 18.1531 116.556 18.6235V19.6742C116.556 20.1165 116.835 20.3926 117.281 20.3926H125.707C126.181 20.3926 126.432 20.1165 126.432 19.6742V18.6235C126.432 18.1531 126.292 17.9332 125.846 17.8207L124.925 17.5727C124.311 17.4066 124.143 17.1023 124.143 16.4939V11.6261C124.143 11.4318 124.283 11.2938 124.479 11.2938H124.953C127.131 11.2938 128.47 12.4008 129.837 13.9756C130.033 14.198 130.283 14.2799 130.619 14.1137L131.315 13.7532C131.622 13.587 131.736 13.3211 131.594 13.0348L129.432 8.63748C129.308 8.38694 129.153 8.23355 128.834 8.23355H128.49C128.256 8.23355 128.106 8.29746 127.892 8.46619C127.698 8.61448 127.464 8.7193 127.164 8.7193H124.479C124.283 8.7193 124.143 8.58124 124.143 8.38694V4.84863C124.143 3.85412 124.533 3.46552 125.593 3.46552C127.407 3.46552 129.891 5.04293 131.341 6.47973C131.591 6.72772 131.898 6.78397 132.234 6.58966L132.987 6.11925C133.237 5.95308 133.408 5.69231 133.237 5.40085L130.737 1.12114Z" fill="white"/>
<path d="M108.93 18.0714L108.288 17.8515C107.702 17.6572 107.506 17.3248 107.506 16.7164V4.68766C107.506 4.0792 107.702 3.77496 108.288 3.5551L108.819 3.3608C109.237 3.19462 109.405 3.02844 109.405 2.55803V1.75526C109.405 1.31298 109.155 1.03687 108.68 1.03687H103.322C102.876 1.03687 102.597 1.31298 102.597 1.75526V2.55803C102.597 3.02844 102.765 3.19462 103.183 3.3608L103.711 3.5551C104.297 3.77496 104.493 4.0792 104.493 4.68766V11.4626C104.493 11.5776 104.4 11.6697 104.284 11.6697C104.22 11.6697 104.163 11.639 104.124 11.593L97.0013 1.70158C96.8233 1.43313 96.6427 1.25673 96.4569 1.16981C96.2712 1.08288 96.0158 1.03942 95.6907 1.03942H90.3763C89.93 1.03942 89.6514 1.31553 89.6514 1.75782V2.80858C89.6514 3.27899 89.8191 3.44516 90.237 3.61134L90.7659 3.80564C91.3515 4.02551 91.5475 4.32974 91.5475 4.93821V16.7445C91.5475 17.353 91.3515 17.6572 90.7659 17.8796L90.237 18.0739C89.8191 18.2401 89.6514 18.4063 89.6514 18.8767V19.6794C89.6514 20.1217 89.93 20.3979 90.3763 20.3979H95.7346C96.2093 20.3979 96.4595 20.1217 96.4595 19.6794V18.8767C96.4595 18.4063 96.2918 18.2401 95.8739 18.0739L95.345 17.8796C94.7594 17.6572 94.5633 17.353 94.5633 16.7445V9.12077C94.5633 9.00573 94.6562 8.91369 94.7723 8.91369C94.8368 8.91369 94.8961 8.94437 94.9323 8.99039L102.819 19.7306C102.994 19.999 103.177 20.1754 103.363 20.2624C103.549 20.3493 103.804 20.3927 104.129 20.3927H108.791C109.266 20.3927 109.516 20.1166 109.516 19.6743V18.8716C109.516 18.4012 109.348 18.2094 108.93 18.0714Z" fill="white"/>
</svg>
