<svg width="164" height="19" viewBox="0 0 164 19" fill="none" xmlns="http://www.w3.org/2000/svg">
<path d="M27.924 8.95864L27.0323 7.41413L24.007 2.17554L23.3564 1.04958C23.245 0.853956 23.0357 0.733398 22.8105 0.733398H13.6754C13.4502 0.733398 13.2409 0.853956 13.1295 1.04958L12.4016 2.30975L9.20563 7.84632C9.14421 7.95323 9.00773 8.00782 8.88945 7.97598C8.76661 7.94413 8.68245 7.83267 8.68245 7.70529V5.07348C8.68245 2.68052 6.73533 0.733398 4.34236 0.733398H0.630086C0.28206 0.733398 0 1.01546 0 1.36348V5.07348C0 6.80452 1.03043 8.3513 2.62498 9.0155C2.72962 9.05872 2.79786 9.16108 2.79786 9.27254V9.27482C2.79786 9.38855 2.72962 9.48864 2.62498 9.53413C1.03953 10.1938 0.00909872 11.7315 0 13.4511C0 13.4534 0 13.4693 0 13.4716V16.183V17.1884C0 17.5365 0.28206 17.8185 0.630086 17.8185H4.34009C6.73305 17.8185 8.68018 15.8714 8.68018 13.4784V10.8466C8.68018 10.7192 8.76662 10.6078 8.88717 10.5759C8.90992 10.5691 8.93494 10.5668 8.95996 10.5668C9.06005 10.5668 9.15331 10.6214 9.20335 10.7079L12.6063 16.5993L13.1272 17.5023C13.2386 17.698 13.4479 17.8185 13.6731 17.8185H22.8082C23.0334 17.8185 23.2427 17.698 23.3541 17.5023L24.3209 15.8282L26.5933 11.8907L26.6251 11.8338L27.6692 10.0255L27.9194 9.591C28.0354 9.39538 28.0354 9.15426 27.924 8.95864ZM18.3112 12.5913C16.5301 12.5913 15.0789 11.1037 15.0789 9.27482C15.0789 7.44598 16.5278 5.95833 18.3112 5.95833C20.0922 5.95833 21.5435 7.44598 21.5435 9.27482C21.5435 11.1037 20.0922 12.5913 18.3112 12.5913Z" fill="#1D0070"/>
<path d="M68.9965 0.299316C63.6328 0.299316 59.8932 4.21176 59.8932 9.20469C59.8932 14.1999 63.6328 18.1101 68.9965 18.1101C74.3601 18.1101 78.0997 14.1976 78.0997 9.20469C78.0997 4.21176 74.3601 0.299316 68.9965 0.299316ZM69.158 15.3895C66.9697 15.4464 65.664 13.3855 65.5594 9.33662C65.4434 4.87825 66.6467 3.07897 68.8054 3.02211C71.0505 2.96297 72.3198 4.72584 72.4358 9.15692C72.5427 13.2331 71.3735 15.3327 69.158 15.3895Z" fill="#1D0070"/>
<path d="M40.4001 0.594727H33.3145C32.921 0.594727 32.6753 0.840391 32.6753 1.23391V2.1688C32.6753 2.58735 32.8231 2.7352 33.1916 2.88305L33.658 3.05593C34.1743 3.25155 34.3472 3.52224 34.3472 4.06361V14.3474C34.3472 14.8888 34.1743 15.1595 33.658 15.3551L33.1916 15.528C32.8231 15.6758 32.6753 15.8237 32.6753 16.2422V17.1771C32.6753 17.5707 32.921 17.8163 33.3145 17.8163H40.4001C40.7936 17.8163 41.0393 17.5707 41.0393 17.1771V16.2422C41.0393 15.8237 40.8914 15.6758 40.5229 15.528L40.0566 15.3551C39.5403 15.1595 39.3674 14.8888 39.3674 14.3474V4.06361C39.3674 3.52224 39.5403 3.25155 40.0566 3.05593L40.5229 2.88305C40.8914 2.7352 41.0393 2.58735 41.0393 2.1688V1.23391C41.0393 0.840391 40.7936 0.594727 40.4001 0.594727Z" fill="#1D0070"/>
<path d="M59.3348 15.5526L59.0642 15.4048C58.3999 15.0363 57.9086 14.7656 57.2672 13.7556L54.9538 10.0411C54.831 9.84316 54.9038 9.69758 55.1267 9.64754C57.0693 9.13119 58.177 7.9984 58.177 5.98076C58.177 2.17067 55.2063 0.592041 48.8577 0.592041L43.2187 0.642084C42.8252 0.692127 42.6273 0.912771 42.6273 1.28127V2.21616C42.6273 2.6347 42.7752 2.78256 43.0936 2.90539L43.66 3.12603C44.1263 3.32393 44.2992 3.5696 44.2992 4.06093V14.3448C44.2992 14.8861 44.1263 15.1568 43.61 15.3524L43.1437 15.5253C42.7752 15.6732 42.6273 15.821 42.6273 16.2396V17.1745C42.6273 17.568 42.873 17.8136 43.2665 17.8136H50.3521C50.7707 17.8136 50.9913 17.568 50.9913 17.1745V16.2396C50.9913 15.821 50.8435 15.6732 50.475 15.5253L50.0064 15.3524C49.49 15.1568 49.3172 14.8861 49.3172 14.3448V10.5301C49.3172 10.3095 49.3899 10.2344 49.5628 10.2344C49.7607 10.2344 49.8836 10.3823 50.0542 10.678L53.4252 16.7787C53.8438 17.5407 54.1622 17.8114 55.0243 17.8114H59.3303C59.7488 17.8114 59.9217 17.5907 59.9217 17.27V16.3851C59.9263 15.9962 59.8034 15.8233 59.3348 15.5526ZM50.2316 8.17127H49.6902C49.4878 8.17127 49.3422 8.0257 49.3422 7.82325V3.12376C49.3422 2.92131 49.4878 2.77573 49.6902 2.77573H50.2589C52.1719 2.77573 53.357 3.46951 53.357 5.39389C53.357 7.316 52.4403 8.17127 50.2316 8.17127Z" fill="#1D0070"/>
<path d="M163.015 3.05593L163.481 2.88305C163.849 2.7352 163.997 2.58735 163.997 2.1688V1.23391C163.997 0.840391 163.777 0.594727 163.358 0.594727H156.272C155.879 0.594727 155.633 0.840391 155.633 1.23391V2.1688C155.633 2.58735 155.781 2.7352 156.15 2.88305L156.616 3.05593C157.132 3.25155 157.305 3.52224 157.305 4.06361V7.164C157.305 7.33687 157.182 7.45971 157.009 7.45971H151.796C151.623 7.45971 151.5 7.33687 151.5 7.164V4.06361C151.5 3.52224 151.673 3.25155 152.189 3.05593L152.658 2.88305C153.027 2.7352 153.174 2.58735 153.174 2.1688V1.23391C153.174 0.840391 152.954 0.594727 152.535 0.594727H145.45C145.056 0.594727 144.81 0.840391 144.81 1.23391V2.1688C144.81 2.58735 144.958 2.7352 145.327 2.88305L145.793 3.05593C146.309 3.25155 146.482 3.52224 146.482 4.06361V14.3474C146.482 14.8888 146.309 15.1595 145.793 15.3551L145.327 15.528C144.958 15.6758 144.81 15.8237 144.81 16.2422V17.1771C144.81 17.5707 145.056 17.8163 145.45 17.8163H152.535C152.954 17.8163 153.174 17.5707 153.174 17.1771V16.2422C153.174 15.8237 153.027 15.6758 152.658 15.528L152.189 15.3551C151.673 15.1595 151.5 14.8888 151.5 14.3474V10.2621C151.5 10.0892 151.623 9.96641 151.796 9.96641H157.012C157.185 9.96641 157.307 10.0892 157.307 10.2621V14.3474C157.307 14.8888 157.135 15.1595 156.618 15.3551L156.152 15.528C155.783 15.6758 155.636 15.8237 155.636 16.2422V17.1771C155.636 17.5707 155.881 17.8163 156.275 17.8163H163.36C163.779 17.8163 164 17.5707 164 17.1771V16.2422C164 15.8237 163.852 15.6758 163.483 15.528L163.017 15.3551C162.501 15.1595 162.328 14.8888 162.328 14.3474V4.06361C162.325 3.52224 162.498 3.25155 163.015 3.05593Z" fill="#1D0070"/>
<path d="M138.417 6.89361L135.414 6.00876C133.938 5.5652 133.151 5.04885 133.151 4.18902C133.151 3.35194 133.938 2.81967 135.143 2.81057C136.836 2.79692 138.344 3.57258 140.507 5.91095C140.803 6.23168 141.121 6.35452 141.565 6.10885L142.081 5.81314C142.525 5.56748 142.591 5.20125 142.377 4.82821L140.227 1.11366C139.979 0.674644 139.809 0.374387 139.292 0.374387H139.056C138.464 0.374387 138.392 0.645074 137.8 0.645074C137.038 0.645074 136.219 0.349365 134.823 0.349365C130.96 0.349365 128.451 2.21915 128.451 5.51516C128.451 8.26979 130.444 9.82113 132.905 10.6332L136.103 11.6909C137.677 12.2073 138.515 12.7987 138.515 13.8814C138.515 15.037 137.63 15.5533 136.178 15.5533C133.965 15.5533 132.045 14.2977 130.028 11.6409C129.707 11.2223 129.388 11.1495 128.97 11.3452L128.158 11.7387C127.789 11.9116 127.685 12.2823 127.912 12.7464L130.178 17.3958C130.383 17.8143 130.669 17.9872 131.015 17.9872H131.308C131.85 17.9872 132.218 17.6187 132.712 17.6187C133.622 17.6187 134.532 18.0623 136.574 18.0623C140.657 18.0623 143.562 16.1675 143.562 12.528C143.56 9.15692 141.319 7.7307 138.417 6.89361Z" fill="#1D0070"/>
<path d="M125.961 0.594727H118.876C118.482 0.594727 118.237 0.840391 118.237 1.23391V2.1688C118.237 2.58735 118.384 2.7352 118.753 2.88305L119.219 3.05593C119.736 3.25155 119.908 3.52224 119.908 4.06361V14.3474C119.908 14.8888 119.736 15.1595 119.219 15.3551L118.753 15.528C118.384 15.6758 118.237 15.8237 118.237 16.2422V17.1771C118.237 17.5707 118.482 17.8163 118.876 17.8163H125.961C126.355 17.8163 126.601 17.5707 126.601 17.1771V16.2422C126.601 15.8237 126.453 15.6758 126.084 15.528L125.618 15.3551C125.102 15.1595 124.929 14.8888 124.929 14.3474V4.06361C124.929 3.52224 125.102 3.25155 125.618 3.05593L126.084 2.88305C126.453 2.7352 126.601 2.58735 126.601 2.1688V1.23391C126.601 0.840391 126.355 0.594727 125.961 0.594727Z" fill="#1D0070"/>
<path d="M115.274 0.669755C115.11 0.38542 114.953 0.201172 114.585 0.201172H114.096C113.825 0.201172 113.675 0.264864 113.47 0.424091C113.247 0.594692 113.054 0.594692 112.572 0.594692H103.409C103.016 0.594692 102.77 0.840357 102.77 1.23388V2.16877C102.77 2.58731 102.918 2.73516 103.287 2.88302L103.753 3.05589C104.269 3.25152 104.442 3.5222 104.442 4.06358V14.3474C104.442 14.8888 104.269 15.1595 103.753 15.3551L103.287 15.528C102.918 15.6758 102.77 15.8237 102.77 16.2422V17.1771C102.77 17.5706 103.016 17.8163 103.409 17.8163H110.839C111.257 17.8163 111.478 17.5706 111.478 17.1771V16.2422C111.478 15.8237 111.355 15.628 110.961 15.528L110.149 15.3073C109.608 15.1595 109.46 14.8888 109.46 14.3474V10.0164C109.46 9.84353 109.583 9.7207 109.756 9.7207H110.174C112.094 9.7207 113.275 10.7056 114.48 12.1068C114.653 12.3047 114.874 12.3775 115.17 12.2297L115.784 11.9089C116.054 11.7611 116.154 11.5245 116.029 11.2698L114.123 7.35731C114.014 7.13439 113.878 6.99791 113.595 6.99791H113.293C113.086 6.99791 112.954 7.05478 112.765 7.20491C112.595 7.33684 112.388 7.4301 112.124 7.4301H109.756C109.583 7.4301 109.46 7.30727 109.46 7.13439V3.98624C109.46 3.10139 109.804 2.75564 110.738 2.75564C112.338 2.75564 114.528 4.15911 115.806 5.43748C116.027 5.65813 116.298 5.70817 116.593 5.53529L117.258 5.11675C117.478 4.9689 117.628 4.73688 117.478 4.47757L115.274 0.669755Z" fill="#1D0070"/>
<path d="M96.0469 15.7509L95.4805 15.5553C94.9641 15.3824 94.7913 15.0867 94.7913 14.5453V3.84297C94.7913 3.30159 94.9641 3.03091 95.4805 2.83529L95.9491 2.66241C96.3176 2.51456 96.4654 2.3667 96.4654 1.94816V1.23391C96.4654 0.840391 96.2448 0.594727 95.8263 0.594727H91.1017C90.7082 0.594727 90.4626 0.840391 90.4626 1.23391V1.94816C90.4626 2.3667 90.6104 2.51456 90.9789 2.66241L91.4452 2.83529C91.9616 3.03091 92.1344 3.30159 92.1344 3.84297V9.87087C92.1344 9.97323 92.0526 10.0551 91.9502 10.0551C91.8933 10.0551 91.8433 10.0278 91.8092 9.98688L85.5288 1.18614C85.3718 0.947302 85.2126 0.790348 85.0488 0.713009C84.885 0.63567 84.6599 0.597 84.3732 0.597H79.6874C79.2939 0.597 79.0482 0.842667 79.0482 1.23619V2.17108C79.0482 2.58962 79.1961 2.73747 79.5646 2.88533L80.0309 3.0582C80.5472 3.25383 80.7201 3.52451 80.7201 4.06589V14.5704C80.7201 15.1117 80.5472 15.3824 80.0309 15.5803L79.5646 15.7532C79.1961 15.901 79.0482 16.0489 79.0482 16.4674V17.1817C79.0482 17.5752 79.2939 17.8209 79.6874 17.8209H84.4119C84.8304 17.8209 85.0511 17.5752 85.0511 17.1817V16.4674C85.0511 16.0489 84.9032 15.901 84.5347 15.7532L84.0684 15.5803C83.5521 15.3824 83.3792 15.1117 83.3792 14.5704V7.78726C83.3792 7.6849 83.4611 7.60301 83.5635 7.60301C83.6203 7.60301 83.6726 7.63031 83.7045 7.67126L90.6582 17.2272C90.8129 17.466 90.9744 17.623 91.1381 17.7003C91.3019 17.7777 91.5271 17.8163 91.8137 17.8163H95.9241C96.3426 17.8163 96.5632 17.5707 96.5632 17.1771V16.4629C96.5632 16.0444 96.4154 15.8737 96.0469 15.7509Z" fill="#1D0070"/>
</svg>
