<svg width="16" height="15" viewBox="0 0 16 15" fill="none" xmlns="http://www.w3.org/2000/svg">
<path d="M13.9852 6.35933C13.5088 6.35933 13.0895 6.55308 12.7814 6.8562C11.6475 6.08433 10.1197 5.58745 8.42679 5.53433L9.3066 1.63433L12.108 2.25308C12.108 2.92808 12.6671 3.47808 13.3531 3.47808C14.0519 3.47808 14.6141 2.91245 14.6141 2.23745C14.6141 1.56245 14.0551 0.996826 13.3531 0.996826C12.864 0.996826 12.4415 1.28745 12.2319 1.68433L9.13826 1.00933C8.98263 0.968701 8.83017 1.07808 8.78888 1.2312L7.82331 5.5312C6.14308 5.59995 4.6312 6.09683 3.49411 6.8687C3.18601 6.55308 2.75087 6.35933 2.27443 6.35933C0.50845 6.35933 -0.0696235 8.69058 1.54708 9.48745C1.4899 9.73433 1.46449 9.99683 1.46449 10.2593C1.46449 12.8781 4.46285 15 8.1441 15C11.8412 15 14.8396 12.8781 14.8396 10.2593C14.8396 9.99683 14.811 9.72183 14.7411 9.47495C16.3261 8.67495 15.7416 6.35933 13.9852 6.35933ZM4.11029 9.65308C4.11029 8.96558 4.66931 8.41245 5.37126 8.41245C6.05732 8.41245 6.61634 8.96245 6.61634 9.65308C6.61634 10.3281 6.05732 10.8781 5.37126 10.8781C4.67249 10.8812 4.11029 10.3281 4.11029 9.65308ZM10.917 12.575C9.7608 13.7125 6.49882 13.7125 5.34267 12.575C5.21562 12.4656 5.21562 12.2718 5.34267 12.1468C5.45384 12.0375 5.65076 12.0375 5.76193 12.1468C6.64492 13.0375 9.57341 13.0531 10.4945 12.1468C10.6057 12.0375 10.8026 12.0375 10.9138 12.1468C11.044 12.2718 11.044 12.4656 10.917 12.575ZM10.8915 10.8812C10.2055 10.8812 9.64646 10.3312 9.64646 9.6562C9.64646 8.9687 10.2055 8.41558 10.8915 8.41558C11.5903 8.41558 12.1525 8.96558 12.1525 9.6562C12.1493 10.3281 11.5903 10.8812 10.8915 10.8812Z" fill="#1D0070"/>
</svg>
