<svg width="17" height="14" viewBox="0 0 17 14" fill="none" xmlns="http://www.w3.org/2000/svg">
<path d="M14.5906 3.741C14.601 3.88313 14.601 4.02529 14.601 4.16741C14.601 8.50241 11.2474 13.4973 5.11808 13.4973C3.22975 13.4973 1.47558 12.9593 0 12.0253C0.268296 12.0557 0.526238 12.0659 0.804856 12.0659C2.36296 12.0659 3.79728 11.5481 4.94266 10.6649C3.4774 10.6344 2.24947 9.69026 1.8264 8.39075C2.03279 8.42119 2.23915 8.4415 2.45586 8.4415C2.75509 8.4415 3.05436 8.40088 3.33294 8.32985C1.80578 8.02525 0.66037 6.70547 0.66037 5.11157V5.07097C1.10406 5.31463 1.62004 5.46691 2.16689 5.48719C1.26916 4.89835 0.681015 3.89329 0.681015 2.75622C0.681015 2.1471 0.846084 1.58872 1.13503 1.10141C2.77571 3.09125 5.24189 4.39072 8.00727 4.53288C7.95569 4.28922 7.92472 4.03544 7.92472 3.78163C7.92472 1.9745 9.41063 0.502441 11.2577 0.502441C12.2173 0.502441 13.0841 0.898379 13.6929 1.53797C14.4461 1.39585 15.1684 1.12172 15.8082 0.746098C15.5605 1.50754 15.0343 2.14713 14.343 2.55319C15.0137 2.48216 15.6638 2.29938 16.2622 2.0456C15.8083 2.69532 15.2407 3.27397 14.5906 3.741Z" fill="#1D0070"/>
</svg>
